<svg width="16" height="16" viewBox="0 0 16 16" fill="none" xmlns="http://www.w3.org/2000/svg">
<path d="M6.2632 12.9142L6.65283 13.7905C6.76865 14.0514 6.95768 14.273 7.19698 14.4286C7.43628 14.5841 7.71557 14.6669 8.00098 14.6668C8.28639 14.6669 8.56568 14.5841 8.80497 14.4286C9.04427 14.273 9.2333 14.0514 9.34912 13.7905L9.73875 12.9142C9.87745 12.6033 10.1108 12.3441 10.4054 12.1735C10.7019 12.0025 11.045 11.9296 11.3854 11.9653L12.3388 12.0668C12.6225 12.0968 12.9089 12.0439 13.1632 11.9144C13.4175 11.7849 13.6287 11.5844 13.7713 11.3372C13.9141 11.0902 13.9822 10.807 13.9672 10.5221C13.9522 10.2372 13.8548 9.9627 13.6869 9.73202L13.1225 8.95646C12.9215 8.67825 12.8141 8.34337 12.8158 8.00016C12.8157 7.65789 12.9241 7.3244 13.1254 7.04757L13.6899 6.27201C13.8578 6.04133 13.9551 5.76688 13.9701 5.48195C13.9851 5.19701 13.9171 4.91386 13.7743 4.66683C13.6317 4.41965 13.4205 4.21916 13.1662 4.08965C12.9119 3.96014 12.6255 3.90718 12.3417 3.9372L11.3884 4.03868C11.0479 4.07444 10.7049 4.00158 10.4084 3.83053C10.1131 3.659 9.87977 3.3984 9.74172 3.08609L9.34912 2.20979C9.2333 1.94894 9.04427 1.72731 8.80497 1.57176C8.56568 1.41622 8.28639 1.33345 8.00098 1.3335C7.71557 1.33345 7.43628 1.41622 7.19698 1.57176C6.95768 1.72731 6.76865 1.94894 6.65283 2.20979L6.2632 3.08609C6.12515 3.3984 5.89178 3.659 5.59653 3.83053C5.30001 4.00158 4.95698 4.07444 4.61653 4.03868L3.66024 3.9372C3.37646 3.90718 3.09006 3.96014 2.83578 4.08965C2.5815 4.21916 2.37025 4.41965 2.22764 4.66683C2.08486 4.91386 2.01683 5.19701 2.03182 5.48195C2.04681 5.76688 2.14417 6.04133 2.31209 6.27201L2.87653 7.04757C3.07783 7.3244 3.18622 7.65789 3.18616 8.00016C3.18622 8.34244 3.07783 8.67593 2.87653 8.95276L2.31209 9.72831C2.14417 9.95899 2.04681 10.2335 2.03182 10.5184C2.01683 10.8033 2.08486 11.0865 2.22764 11.3335C2.37039 11.5805 2.58166 11.7809 2.83591 11.9104C3.09015 12.0399 3.37648 12.093 3.66024 12.0631L4.61357 11.9616C4.95402 11.9259 5.29705 11.9987 5.59357 12.1698C5.88992 12.3408 6.12438 12.6015 6.2632 12.9142Z" stroke="#D1E0FF" stroke-width="1.67" stroke-linecap="round" stroke-linejoin="round"/>
<path d="M7.99979 10.0002C9.10435 10.0002 9.99979 9.10473 9.99979 8.00016C9.99979 6.89559 9.10435 6.00016 7.99979 6.00016C6.89522 6.00016 5.99979 6.89559 5.99979 8.00016C5.99979 9.10473 6.89522 10.0002 7.99979 10.0002Z" stroke="#D1E0FF" stroke-width="1.67" stroke-linecap="round" stroke-linejoin="round"/>
</svg>
