<svg width="14" height="15" viewBox="0 0 14 15" fill="none" xmlns="http://www.w3.org/2000/svg">
<path d="M9.50163 3.50163V2.96829C9.50163 2.22156 9.50163 1.84819 9.3563 1.56297C9.22847 1.31209 9.0245 1.10812 8.77362 0.980286C8.4884 0.834961 8.11503 0.834961 7.36829 0.834961H6.30163C5.55489 0.834961 5.18152 0.834961 4.89631 0.980286C4.64542 1.10812 4.44145 1.31209 4.31362 1.56297C4.16829 1.84819 4.16829 2.22156 4.16829 2.96829V3.50163M5.50163 7.16829V10.5016M8.16829 7.16829V10.5016M0.834961 3.50163H12.835M11.5016 3.50163V10.9683C11.5016 12.0884 11.5016 12.6485 11.2836 13.0763C11.0919 13.4526 10.7859 13.7586 10.4096 13.9503C9.98179 14.1683 9.42173 14.1683 8.30163 14.1683H5.36829C4.24819 14.1683 3.68814 14.1683 3.26031 13.9503C2.88399 13.7586 2.57803 13.4526 2.38628 13.0763C2.16829 12.6485 2.16829 12.0884 2.16829 10.9683V3.50163" stroke="#D1E0FF" stroke-width="1.67" stroke-linecap="round" stroke-linejoin="round"/>
</svg>
